<svg width="23" height="14" viewBox="0 0 23 14" fill="none" xmlns="http://www.w3.org/2000/svg">
<path fill-rule="evenodd" clip-rule="evenodd" d="M21.85 11.5C22.4851 11.5 23 12.0149 23 12.65C23 13.2851 22.4851 13.8 21.85 13.8H1.15C0.514873 13.8 0 13.2851 0 12.65C0 12.0149 0.514872 11.5 1.15 11.5H21.85Z" fill="#7995DD"/>
<path fill-rule="evenodd" clip-rule="evenodd" d="M21.8499 5.75C22.485 5.75 22.9999 6.26487 22.9999 6.9C22.9999 7.53513 22.485 8.05 21.8499 8.05H5.74991C5.11478 8.05 4.59991 7.53513 4.59991 6.9C4.59991 6.26487 5.11479 5.75 5.74991 5.75H21.8499Z" fill="#283D80"/>
<path fill-rule="evenodd" clip-rule="evenodd" d="M21.85 0C22.4851 0 23 0.514872 23 1.15C23 1.78513 22.4851 2.3 21.85 2.3H1.15C0.514873 2.3 0 1.78513 0 1.15C0 0.514872 0.514872 0 1.15 0H21.85Z" fill="#7995DD"/>
</svg>
